<svg width="920" height="960" xmlns="http://www.w3.org/2000/svg">
    <text
    x="460" y="38"
    font-family="'Apple SD Gothic Neo', 'AppleSDGothicNeo', -apple-system, sans-serif"
    font-size="32"
    font-weight="600"
    fill="#000000"
    text-anchor="middle"
    dominant-baseline="auto"
  >Github.</text>

   <text
    x="460" y="56"
    font-family="'Apple SD Gothic Neo', 'AppleSDGothicNeo', -apple-system, sans-serif"
    font-size="16"
    font-weight="600"
    fill="#8E8E93"
    text-anchor="middle"
    dominant-baseline="auto"
  >xitges</text>


    <line x1="100" y1="66" x2="820" y2="66" stroke="#000000" stroke-width="1"/>

 
  <g transform="translate(70,45)">
    <line x1="610.57" x2="610.57" y1="109.92" y2="853.05" stroke="#1a1612" stroke-width="0.40" stroke-opacity="0.270"></line>
    <line x1="651.89" x2="651.89" y1="145.99" y2="849.90" stroke="#1a1612" stroke-width="0.40" stroke-opacity="0.164"></line>
    <line x1="307.36" x2="307.36" y1="93.25" y2="814.07" stroke="#1a1612" stroke-width="0.40" stroke-opacity="0.195"></line>
    <line x1="117.77" x2="117.77" y1="80.08" y2="842.43" stroke="#1a1612" stroke-width="0.41" stroke-opacity="0.255"></line>
    <line x1="330.12" x2="330.12" y1="140.57" y2="892.78" stroke="#1a1612" stroke-width="0.41" stroke-opacity="0.188"></line>
    <line x1="272.43" x2="272.43" y1="159.86" y2="829.55" stroke="#1a1612" stroke-width="0.41" stroke-opacity="0.199"></line>
    <line x1="411.74" x2="411.74" y1="128.57" y2="893.83" stroke="#1a1612" stroke-width="0.42" stroke-opacity="0.245"></line>
    <line x1="56.86" x2="56.86" y1="177.10" y2="877.72" stroke="#1a1612" stroke-width="0.42" stroke-opacity="0.265"></line>
    <line x1="479.23" x2="479.23" y1="81.79" y2="809.44" stroke="#1a1612" stroke-width="0.42" stroke-opacity="0.234"></line>
    <line x1="442.50" x2="442.50" y1="119.75" y2="849.33" stroke="#1a1612" stroke-width="0.44" stroke-opacity="0.245"></line>
    <line x1="169.45" x2="169.45" y1="113.03" y2="856.57" stroke="#1a1612" stroke-width="0.44" stroke-opacity="0.159"></line>
    <line x1="504.62" x2="504.62" y1="89.87" y2="896.66" stroke="#1a1612" stroke-width="0.44" stroke-opacity="0.170"></line>
    <line x1="530.61" x2="530.61" y1="172.76" y2="830.05" stroke="#1a1612" stroke-width="0.44" stroke-opacity="0.266"></line>
    <line x1="648.70" x2="648.70" y1="184.97" y2="870.74" stroke="#1a1612" stroke-width="0.44" stroke-opacity="0.190"></line>
    <line x1="521.59" x2="521.59" y1="85.60" y2="827.35" stroke="#1a1612" stroke-width="0.44" stroke-opacity="0.213"></line>
    <line x1="459.22" x2="459.22" y1="141.54" y2="882.15" stroke="#1a1612" stroke-width="0.45" stroke-opacity="0.148"></line>
    <line x1="610.43" x2="610.43" y1="146.83" y2="838.16" stroke="#1a1612" stroke-width="0.45" stroke-opacity="0.268"></line>
    <line x1="379.72" x2="379.72" y1="84.87" y2="794.09" stroke="#1a1612" stroke-width="0.45" stroke-opacity="0.267"></line>
    <line x1="664.58" x2="664.58" y1="109.69" y2="887.53" stroke="#1a1612" stroke-width="0.46" stroke-opacity="0.238"></line>
    <line x1="387.02" x2="387.02" y1="165.78" y2="879.17" stroke="#1a1612" stroke-width="0.46" stroke-opacity="0.256"></line>
    <line x1="523.62" x2="523.62" y1="146.01" y2="852.77" stroke="#1a1612" stroke-width="0.46" stroke-opacity="0.235"></line>
    <line x1="354.39" x2="354.39" y1="136.79" y2="880.52" stroke="#1a1612" stroke-width="0.47" stroke-opacity="0.202"></line>
    <line x1="274.72" x2="274.72" y1="185.61" y2="850.37" stroke="#1a1612" stroke-width="0.47" stroke-opacity="0.249"></line>
    <line x1="741.95" x2="741.95" y1="98.44" y2="861.39" stroke="#1a1612" stroke-width="0.48" stroke-opacity="0.157"></line>
    <line x1="576.60" x2="576.60" y1="113.17" y2="852.57" stroke="#1a1612" stroke-width="0.48" stroke-opacity="0.243"></line>
    <line x1="255.52" x2="255.52" y1="112.94" y2="823.17" stroke="#1a1612" stroke-width="0.48" stroke-opacity="0.108"></line>
    <line x1="512.81" x2="512.81" y1="106.63" y2="844.34" stroke="#1a1612" stroke-width="0.49" stroke-opacity="0.160"></line>
    <line x1="228.09" x2="228.09" y1="107.47" y2="895.14" stroke="#1a1612" stroke-width="0.50" stroke-opacity="0.246"></line>
    <line x1="94.04" x2="94.04" y1="143.10" y2="805.60" stroke="#1a1612" stroke-width="0.51" stroke-opacity="0.144"></line>
    <line x1="178.34" x2="178.34" y1="178.93" y2="822.49" stroke="#1a1612" stroke-width="0.51" stroke-opacity="0.122"></line>
    <line x1="440.10" x2="440.10" y1="115.31" y2="871.05" stroke="#1a1612" stroke-width="0.51" stroke-opacity="0.180"></line>
    <line x1="465.15" x2="465.15" y1="126.51" y2="809.32" stroke="#1a1612" stroke-width="0.51" stroke-opacity="0.225"></line>
    <line x1="347.26" x2="347.26" y1="185.55" y2="896.20" stroke="#1a1612" stroke-width="0.51" stroke-opacity="0.193"></line>
    <line x1="325.31" x2="325.31" y1="142.41" y2="821.92" stroke="#1a1612" stroke-width="0.52" stroke-opacity="0.139"></line>
    <line x1="332.92" x2="332.92" y1="140.42" y2="882.61" stroke="#1a1612" stroke-width="0.52" stroke-opacity="0.245"></line>
    <line x1="382.44" x2="382.44" y1="143.70" y2="898.59" stroke="#1a1612" stroke-width="0.52" stroke-opacity="0.151"></line>
    <line x1="290.60" x2="290.60" y1="96.18" y2="830.09" stroke="#1a1612" stroke-width="0.53" stroke-opacity="0.188"></line>
    <line x1="88.49" x2="88.49" y1="130.83" y2="837.30" stroke="#1a1612" stroke-width="0.53" stroke-opacity="0.181"></line>
    <line x1="491.52" x2="491.52" y1="136.67" y2="864.54" stroke="#1a1612" stroke-width="0.53" stroke-opacity="0.213"></line>
    <line x1="613.64" x2="613.64" y1="177.67" y2="807.73" stroke="#1a1612" stroke-width="0.53" stroke-opacity="0.193"></line>
    <line x1="738.10" x2="738.10" y1="134.67" y2="844.46" stroke="#1a1612" stroke-width="0.53" stroke-opacity="0.241"></line>
    <line x1="485.87" x2="485.87" y1="185.38" y2="814.72" stroke="#1a1612" stroke-width="0.53" stroke-opacity="0.217"></line>
    <line x1="50.23" x2="50.23" y1="83.66" y2="841.69" stroke="#1a1612" stroke-width="0.54" stroke-opacity="0.266"></line>
    <line x1="566.82" x2="566.82" y1="172.44" y2="830.73" stroke="#1a1612" stroke-width="0.54" stroke-opacity="0.240"></line>
    <line x1="191.90" x2="191.90" y1="133.94" y2="874.46" stroke="#1a1612" stroke-width="0.55" stroke-opacity="0.258"></line>
    <line x1="537.60" x2="537.60" y1="188.90" y2="821.91" stroke="#1a1612" stroke-width="0.55" stroke-opacity="0.223"></line>
    <line x1="740.92" x2="740.92" y1="65.81" y2="853.91" stroke="#1a1612" stroke-width="0.55" stroke-opacity="0.274"></line>
    <line x1="627.49" x2="627.49" y1="91.60" y2="865.37" stroke="#1a1612" stroke-width="0.56" stroke-opacity="0.216"></line>
    <line x1="48.24" x2="48.24" y1="181.59" y2="811.52" stroke="#1a1612" stroke-width="0.56" stroke-opacity="0.129"></line>
    <line x1="130.76" x2="130.76" y1="81.87" y2="861.59" stroke="#1a1612" stroke-width="0.57" stroke-opacity="0.100"></line>
    <line x1="447.70" x2="447.70" y1="129.57" y2="801.61" stroke="#1a1612" stroke-width="0.57" stroke-opacity="0.171"></line>
    <line x1="693.77" x2="693.77" y1="149.35" y2="836.09" stroke="#1a1612" stroke-width="0.57" stroke-opacity="0.215"></line>
    <line x1="704.63" x2="704.63" y1="126.51" y2="830.41" stroke="#1a1612" stroke-width="0.57" stroke-opacity="0.188"></line>
    <line x1="240.86" x2="240.86" y1="126.55" y2="802.72" stroke="#1a1612" stroke-width="0.57" stroke-opacity="0.144"></line>
    <line x1="126.36" x2="126.36" y1="94.96" y2="848.68" stroke="#1a1612" stroke-width="0.57" stroke-opacity="0.157"></line>
    <line x1="315.23" x2="315.23" y1="81.82" y2="860.22" stroke="#1a1612" stroke-width="0.58" stroke-opacity="0.220"></line>
    <line x1="367.07" x2="367.07" y1="108.02" y2="899.59" stroke="#1a1612" stroke-width="0.58" stroke-opacity="0.105"></line>
    <line x1="239.09" x2="239.09" y1="181.18" y2="878.54" stroke="#1a1612" stroke-width="0.58" stroke-opacity="0.179"></line>
    <line x1="698.76" x2="698.76" y1="151.53" y2="797.24" stroke="#1a1612" stroke-width="0.59" stroke-opacity="0.170"></line>
    <line x1="221.05" x2="221.05" y1="66.70" y2="820.27" stroke="#1a1612" stroke-width="0.59" stroke-opacity="0.149"></line>
    <line x1="108.64" x2="108.64" y1="113.25" y2="795.11" stroke="#1a1612" stroke-width="0.59" stroke-opacity="0.129"></line>
    <line x1="204.61" x2="204.61" y1="156.34" y2="795.55" stroke="#1a1612" stroke-width="0.59" stroke-opacity="0.184"></line>
    <line x1="93.16" x2="93.16" y1="182.23" y2="837.66" stroke="#1a1612" stroke-width="0.59" stroke-opacity="0.246"></line>
    <line x1="561.12" x2="561.12" y1="178.27" y2="853.18" stroke="#1a1612" stroke-width="0.59" stroke-opacity="0.120"></line>
    <line x1="172.10" x2="172.10" y1="137.60" y2="827.99" stroke="#1a1612" stroke-width="0.60" stroke-opacity="0.131"></line>
    <line x1="353.42" x2="353.42" y1="148.66" y2="842.38" stroke="#1a1612" stroke-width="0.60" stroke-opacity="0.184"></line>
    <line x1="387.90" x2="387.90" y1="188.42" y2="859.44" stroke="#1a1612" stroke-width="0.60" stroke-opacity="0.230"></line>
    <line x1="100.07" x2="100.07" y1="100.38" y2="887.04" stroke="#1a1612" stroke-width="0.60" stroke-opacity="0.223"></line>
    <line x1="496.89" x2="496.89" y1="114.56" y2="872.83" stroke="#1a1612" stroke-width="0.60" stroke-opacity="0.209"></line>
    <line x1="549.34" x2="549.34" y1="170.08" y2="817.31" stroke="#1a1612" stroke-width="0.60" stroke-opacity="0.154"></line>
    <line x1="251.42" x2="251.42" y1="119.41" y2="859.07" stroke="#1a1612" stroke-width="0.60" stroke-opacity="0.197"></line>
    <line x1="166.62" x2="166.62" y1="139.71" y2="819.16" stroke="#1a1612" stroke-width="0.60" stroke-opacity="0.158"></line>
    <line x1="120.21" x2="120.21" y1="103.02" y2="873.28" stroke="#1a1612" stroke-width="0.62" stroke-opacity="0.123"></line>
    <line x1="150.74" x2="150.74" y1="174.41" y2="841.70" stroke="#1a1612" stroke-width="0.62" stroke-opacity="0.147"></line>
    <line x1="170.51" x2="170.51" y1="190.94" y2="828.25" stroke="#1a1612" stroke-width="0.62" stroke-opacity="0.161"></line>
    <line x1="429.62" x2="429.62" y1="149.67" y2="895.41" stroke="#1a1612" stroke-width="0.62" stroke-opacity="0.139"></line>
    <line x1="450.69" x2="450.69" y1="128.17" y2="810.68" stroke="#1a1612" stroke-width="0.63" stroke-opacity="0.218"></line>
    <line x1="592.74" x2="592.74" y1="117.33" y2="873.41" stroke="#1a1612" stroke-width="0.63" stroke-opacity="0.265"></line>
    <line x1="523.18" x2="523.18" y1="156.75" y2="849.86" stroke="#1a1612" stroke-width="0.63" stroke-opacity="0.144"></line>
    <line x1="363.41" x2="363.41" y1="181.00" y2="826.05" stroke="#1a1612" stroke-width="0.64" stroke-opacity="0.246"></line>
    <line x1="327.98" x2="327.98" y1="182.00" y2="816.00" stroke="#1a1612" stroke-width="0.64" stroke-opacity="0.218"></line>
    <line x1="334.44" x2="334.44" y1="129.40" y2="870.27" stroke="#1a1612" stroke-width="0.64" stroke-opacity="0.250"></line>
    <line x1="49.20" x2="49.20" y1="117.28" y2="891.20" stroke="#1a1612" stroke-width="0.64" stroke-opacity="0.204"></line>
    <line x1="698.05" x2="698.05" y1="182.10" y2="856.68" stroke="#1a1612" stroke-width="0.64" stroke-opacity="0.137"></line>
    <line x1="707.62" x2="707.62" y1="170.88" y2="881.71" stroke="#1a1612" stroke-width="0.64" stroke-opacity="0.166"></line>
    <line x1="730.10" x2="730.10" y1="125.89" y2="861.04" stroke="#1a1612" stroke-width="0.64" stroke-opacity="0.162"></line>
    <line x1="126.97" x2="126.97" y1="100.20" y2="818.63" stroke="#1a1612" stroke-width="0.65" stroke-opacity="0.126"></line>
    <line x1="387.49" x2="387.49" y1="108.75" y2="843.76" stroke="#1a1612" stroke-width="0.65" stroke-opacity="0.151"></line>
    <line x1="696.81" x2="696.81" y1="193.74" y2="817.69" stroke="#1a1612" stroke-width="0.65" stroke-opacity="0.236"></line>
    <line x1="113.04" x2="113.04" y1="194.99" y2="820.37" stroke="#1a1612" stroke-width="0.65" stroke-opacity="0.102"></line>
    <line x1="139.70" x2="139.70" y1="153.23" y2="820.91" stroke="#1a1612" stroke-width="0.65" stroke-opacity="0.274"></line>
    <line x1="625.94" x2="625.94" y1="169.61" y2="847.81" stroke="#1a1612" stroke-width="0.66" stroke-opacity="0.263"></line>
    <line x1="438.99" x2="438.99" y1="100.61" y2="876.98" stroke="#1a1612" stroke-width="0.66" stroke-opacity="0.238"></line>
    <line x1="456.85" x2="456.85" y1="163.39" y2="808.56" stroke="#1a1612" stroke-width="0.67" stroke-opacity="0.168"></line>
    <line x1="635.55" x2="635.55" y1="169.05" y2="880.91" stroke="#1a1612" stroke-width="0.67" stroke-opacity="0.156"></line>
    <line x1="320.21" x2="320.21" y1="182.13" y2="822.55" stroke="#1a1612" stroke-width="0.68" stroke-opacity="0.151"></line>
    <line x1="559.53" x2="559.53" y1="150.58" y2="870.04" stroke="#1a1612" stroke-width="0.68" stroke-opacity="0.203"></line>
    <line x1="384.52" x2="384.52" y1="90.95" y2="873.52" stroke="#1a1612" stroke-width="0.69" stroke-opacity="0.269"></line>
    <line x1="391.34" x2="391.34" y1="150.30" y2="792.66" stroke="#1a1612" stroke-width="0.69" stroke-opacity="0.175"></line>
    <line x1="613.95" x2="613.95" y1="152.79" y2="831.30" stroke="#1a1612" stroke-width="0.69" stroke-opacity="0.133"></line>
    <line x1="376.89" x2="376.89" y1="108.07" y2="889.74" stroke="#1a1612" stroke-width="0.69" stroke-opacity="0.244"></line>
    <line x1="451.07" x2="451.07" y1="176.04" y2="835.58" stroke="#1a1612" stroke-width="0.69" stroke-opacity="0.270"></line>
    <line x1="337.74" x2="337.74" y1="95.62" y2="826.57" stroke="#1a1612" stroke-width="0.70" stroke-opacity="0.231"></line>
    <line x1="69.64" x2="69.64" y1="126.92" y2="809.40" stroke="#1a1612" stroke-width="0.71" stroke-opacity="0.169"></line>
    <line x1="55.16" x2="55.16" y1="114.54" y2="854.93" stroke="#1a1612" stroke-width="0.71" stroke-opacity="0.179"></line>
    <line x1="253.03" x2="253.03" y1="91.71" y2="822.74" stroke="#1a1612" stroke-width="0.71" stroke-opacity="0.171"></line>
    <line x1="356.42" x2="356.42" y1="199.58" y2="870.43" stroke="#1a1612" stroke-width="0.71" stroke-opacity="0.183"></line>
    <line x1="417.28" x2="417.28" y1="74.15" y2="812.13" stroke="#1a1612" stroke-width="0.72" stroke-opacity="0.132"></line>
    <line x1="600.09" x2="600.09" y1="155.23" y2="805.48" stroke="#1a1612" stroke-width="0.72" stroke-opacity="0.217"></line>
    <line x1="114.03" x2="114.03" y1="169.13" y2="893.36" stroke="#1a1612" stroke-width="0.72" stroke-opacity="0.121"></line>
    <line x1="62.39" x2="62.39" y1="174.28" y2="875.36" stroke="#1a1612" stroke-width="0.72" stroke-opacity="0.192"></line>
    <line x1="430.83" x2="430.83" y1="73.79" y2="807.21" stroke="#1a1612" stroke-width="0.73" stroke-opacity="0.259"></line>
    <line x1="431.62" x2="431.62" y1="93.80" y2="892.49" stroke="#1a1612" stroke-width="0.73" stroke-opacity="0.210"></line>
    <line x1="506.21" x2="506.21" y1="168.16" y2="809.35" stroke="#1a1612" stroke-width="0.74" stroke-opacity="0.202"></line>
    <line x1="356.32" x2="356.32" y1="181.96" y2="797.38" stroke="#1a1612" stroke-width="0.74" stroke-opacity="0.162"></line>
    <line x1="170.74" x2="170.74" y1="148.94" y2="848.36" stroke="#1a1612" stroke-width="0.74" stroke-opacity="0.258"></line>
    <line x1="263.35" x2="263.35" y1="77.04" y2="819.91" stroke="#1a1612" stroke-width="0.74" stroke-opacity="0.121"></line>
    <line x1="592.68" x2="592.68" y1="127.14" y2="872.87" stroke="#1a1612" stroke-width="0.74" stroke-opacity="0.145"></line>
    <line x1="473.40" x2="473.40" y1="86.70" y2="807.81" stroke="#1a1612" stroke-width="0.75" stroke-opacity="0.153"></line>
    <line x1="362.83" x2="362.83" y1="139.82" y2="876.98" stroke="#1a1612" stroke-width="0.75" stroke-opacity="0.249"></line>
    <line x1="584.72" x2="584.72" y1="634.86" y2="830.70" stroke="#1a1612" stroke-width="0.77" stroke-opacity="0.559" ></line>
    <line x1="457.22" x2="457.22" y1="68.38" y2="462.38" stroke="#1a1612" stroke-width="0.81" stroke-opacity="0.623" ></line>
    <line x1="503.91" x2="503.91" y1="599.30" y2="885.04" stroke="#1a1612" stroke-width="0.81" stroke-opacity="0.571" ></line>
    <line x1="148.08" x2="148.08" y1="65.92" y2="437.77" stroke="#1a1612" stroke-width="0.81" stroke-opacity="0.622" ></line>
    <line x1="709.52" x2="709.52" y1="491.07" y2="848.33" stroke="#14110d" stroke-width="0.82" stroke-opacity="0.665"></line>
    <line x1="656.56" x2="656.56" y1="82.07" y2="885.70" stroke="#14110d" stroke-width="0.83" stroke-opacity="0.643"></line>
    <line x1="87.09" x2="87.09" y1="204.19" y2="682.44" stroke="#14110d" stroke-width="0.85" stroke-opacity="0.567"></line>
    <line x1="271.36" x2="271.36" y1="79.22" y2="872.46" stroke="#14110d" stroke-width="0.85" stroke-opacity="0.659"></line>
    <line x1="600.98" x2="600.98" y1="158.30" y2="310.64" stroke="#1a1612" stroke-width="0.88" stroke-opacity="0.681" ></line>
    <line x1="729.14" x2="729.14" y1="256.18" y2="632.81" stroke="#14110d" stroke-width="0.90" stroke-opacity="0.437"></line>
    <line x1="281.09" x2="281.09" y1="333.10" y2="531.16" stroke="#1a1612" stroke-width="0.91" stroke-opacity="0.668" ></line>
    <line x1="212.70" x2="212.70" y1="74.49" y2="882.95" stroke="#14110d" stroke-width="0.92" stroke-opacity="0.571"></line>
    <line x1="250.49" x2="250.49" y1="70.97" y2="899.52" stroke="#14110d" stroke-width="0.94" stroke-opacity="0.356"></line>
    <line x1="732.04" x2="732.04" y1="203.18" y2="458.17" stroke="#1a1612" stroke-width="0.95" stroke-opacity="0.498" ></line>
    <line x1="721.02" x2="721.02" y1="263.18" y2="420.21" stroke="#1a1612" stroke-width="0.96" stroke-opacity="0.495" ></line>
    <line x1="553.71" x2="553.71" y1="145.21" y2="354.26" stroke="#1a1612" stroke-width="0.99" stroke-opacity="0.530" ></line>
    <line x1="121.14" x2="121.14" y1="530.71" y2="807.83" stroke="#1a1612" stroke-width="0.99" stroke-opacity="0.674" ></line>
    <line x1="656.16" x2="656.16" y1="370.63" y2="703.74" stroke="#1a1612" stroke-width="1.00" stroke-opacity="0.723" ></line>
    <line x1="315.06" x2="315.06" y1="73.41" y2="894.27" stroke="#14110d" stroke-width="1.01" stroke-opacity="0.487"></line>
    <line x1="575.09" x2="575.09" y1="64.27" y2="887.89" stroke="#14110d" stroke-width="1.02" stroke-opacity="0.521"></line>
    <line x1="164.61" x2="164.61" y1="439.21" y2="596.06" stroke="#1a1612" stroke-width="1.03" stroke-opacity="0.468" ></line>
    <line x1="94.11" x2="94.11" y1="124.51" y2="308.27" stroke="#14110d" stroke-width="1.04" stroke-opacity="0.424"></line>
    <line x1="348.85" x2="348.85" y1="564.83" y2="690.58" stroke="#1a1612" stroke-width="1.07" stroke-opacity="0.539" ></line>
    <line x1="171.16" x2="171.16" y1="79.82" y2="873.22" stroke="#14110d" stroke-width="1.11" stroke-opacity="0.548"></line>
    <line x1="92.70" x2="92.70" y1="537.73" y2="602.19" stroke="#1a1612" stroke-width="1.12" stroke-opacity="0.500" ></line>
    <line x1="428.53" x2="428.53" y1="73.18" y2="881.32" stroke="#14110d" stroke-width="1.20" stroke-opacity="0.578"></line>
    <line x1="124.51" x2="124.51" y1="60.51" y2="892.00" stroke="#14110d" stroke-width="1.23" stroke-opacity="0.515"></line>
    <line x1="611.87" x2="611.87" y1="122.79" y2="450.68" stroke="#b4452a" stroke-width="1.26" stroke-opacity="0.819"></line>
    <line x1="428.34" x2="428.34" y1="90.36" y2="214.22" stroke="#14110d" stroke-width="1.27" stroke-opacity="0.533"></line>
    <line x1="296.03" x2="296.03" y1="69.93" y2="892.44" stroke="#14110d" stroke-width="1.27" stroke-opacity="0.397"></line>
    <line x1="335.17" x2="335.17" y1="113.80" y2="468.21" stroke="#14110d" stroke-width="1.31" stroke-opacity="0.352"></line>
    <line x1="383.66" x2="383.66" y1="60.41" y2="879.34" stroke="#14110d" stroke-width="1.31" stroke-opacity="0.367"></line>
    <line x1="389.99" x2="389.99" y1="382.35" y2="800.95" stroke="#14110d" stroke-width="1.32" stroke-opacity="0.474"></line>
    <line x1="91.67" x2="91.67" y1="473.80" y2="797.19" stroke="#14110d" stroke-width="1.32" stroke-opacity="0.398"></line>
    <line x1="51.77" x2="51.77" y1="246.37" y2="420.46" stroke="#14110d" stroke-width="1.36" stroke-opacity="0.591"></line>
    <line x1="262.66" x2="262.66" y1="374.91" y2="617.09" stroke="#14110d" stroke-width="1.37" stroke-opacity="0.385"></line>
    <line x1="256.32" x2="256.32" y1="73.39" y2="895.63" stroke="#14110d" stroke-width="1.40" stroke-opacity="0.650"></line>
    <line x1="121.41" x2="121.41" y1="113.44" y2="466.05" stroke="#14110d" stroke-width="1.42" stroke-opacity="0.414"></line>
    <line x1="145.41" x2="145.41" y1="363.80" y2="713.66" stroke="#14110d" stroke-width="1.45" stroke-opacity="0.660"></line>
    <line x1="702.28" x2="702.28" y1="67.57" y2="896.56" stroke="#14110d" stroke-width="1.49" stroke-opacity="0.397"></line>
    <line x1="508.62" x2="508.62" y1="299.16" y2="637.94" stroke="#14110d" stroke-width="1.50" stroke-opacity="0.487"></line>
    <line x1="334.92" x2="334.92" y1="182.70" y2="841.35" stroke="#0e0c09" stroke-width="1.65" stroke-opacity="0.840"></line>
    <line x1="68.51" x2="68.51" y1="183.02" y2="647.42" stroke="#b4452a" stroke-width="1.67" stroke-opacity="0.941"></line>
    <line x1="586.60" x2="586.60" y1="156.58" y2="545.62" stroke="#b4452a" stroke-width="1.72" stroke-opacity="0.921"></line>
    <line x1="648.18" x2="648.18" y1="95.49" y2="880.48" stroke="#0e0c09" stroke-width="1.86" stroke-opacity="0.855"></line>
    <line x1="498.92" x2="498.92" y1="87.32" y2="854.42" stroke="#0e0c09" stroke-width="2.34" stroke-opacity="0.792"></line>
    <line x1="365.84" x2="365.84" y1="64.13" y2="848.11" stroke="#0e0c09" stroke-width="2.50" stroke-opacity="0.806"></line>
    <line x1="266.50" x2="266.50" y1="217.86" y2="875.58" stroke="#0e0c09" stroke-width="2.83" stroke-opacity="0.916"></line>
<!--
    <text
      class="label label-2"
      x="92" y="155"
      font-family="'Apple SD Gothic Neo', 'AppleSDGothicNeo', -apple-system, sans-serif"
      font-size="22"
      font-weight="500"
      fill="#b4452a"
      fill-opacity="0.85"
      letter-spacing="2"
      transform="rotate(0, 592, 355)"
    >Plugin</text>
          <text
      class="label label-2"
      x="152" y="215"
      font-family="'Apple SD Gothic Neo', 'AppleSDGothicNeo', -apple-system, sans-serif"
      font-size="22"
      font-weight="500"
      fill="#b4452a"
      fill-opacity="0.85"
      letter-spacing="2"
      transform="rotate(0, 592, 355)"
    >Quant</text>
    -->
     
  </g>
     <!-- 트리 -->
<g transform="translate(35,500)">
<text x="90" y="180" font-family="'Apple SD Gothic Neo', 'AppleSDGothicNeo', -apple-system, sans-serif"
    font-weight="500" font-size="22" fill-opacity="0.85"
      letter-spacing="2" fill="#b4452a"></text>
    
    <!--
<text x="290" y="112" font-family="'Apple SD Gothic Neo', 'AppleSDGothicNeo', -apple-system, sans-serif"
font-weight="500" font-size="16" fill="#b4452a" fill-opacity="0.85"
text-anchor="middle" transform="rotate(0 ,290, 115)">C++</text>

<text x="290" y="262" font-family="'Apple SD Gothic Neo', 'AppleSDGothicNeo', -apple-system, sans-serif"
font-weight="500" font-size="16" fill="#b4452a" fill-opacity="0.85"
text-anchor="middle" transform="rotate(90 ,276, 256)">Python</text>
    -->
<!--
  <line x1="133.08" y1="190.38" x2="266.92" y2="134.62" stroke="#1a1612" stroke-width="0.6" stroke-opacity="0.6"/>
  <line x1="133.08" y1="209.62" x2="266.92" y2="265.38" stroke="#1a1612" stroke-width="0.6" stroke-opacity="0.6"/>
  <line x1="314.46" y1="119.85" x2="455.54" y2="90.15" stroke="#1a1612" stroke-width="0.6" stroke-opacity="0.6"/>
  <line x1="314.46" y1="130.15" x2="455.54" y2="159.85" stroke="#1a1612" stroke-width="0.6" stroke-opacity="0.6"/>
  <line x1="314.46" y1="269.85" x2="455.54" y2="240.15" stroke="#1a1612" stroke-width="0.6" stroke-opacity="0.6"/>
  <line x1="314.46" y1="280.15" x2="455.54" y2="309.85" stroke="#1a1612" stroke-width="0.6" stroke-opacity="0.6"/>
  <line x1="504.46" y1="79.85" x2="645.54" y2="50.15" stroke="#1a1612" stroke-width="0.6" stroke-opacity="0.6"/>
  <circle cx="110" cy="200" r="3" fill="#1a1612" fill-opacity="0.6"/>
  <circle cx="290" cy="125" r="3" fill="#1a1612" fill-opacity="0.6"/>
  <circle cx="290" cy="275" r="3" fill="#1a1612" fill-opacity="0.6"/>
  <circle cx="480" cy="85" r="3" fill="#1a1612" fill-opacity="0.6"/>
  <circle cx="480" cy="165" r="3" fill="#1a1612" fill-opacity="0.6"/> 
  <circle cx="480" cy="235" r="3" fill="#1a1612" fill-opacity="0.6"/>
  <circle cx="480" cy="315" r="3" fill="#1a1612" fill-opacity="0.6"/>
    -->
</g>

<g transform="translate(40,80)">
    
<!-- <text x="90" y="180" font-family="'Apple SD Gothic Neo', 'AppleSDGothicNeo', -apple-system, sans-serif"
    font-weight="500" font-size="22" fill-opacity="0.85"
      letter-spacing="2" fill="#b4452a"></text>
  <line x1="133.08" y1="190.38" x2="266.92" y2="134.62" stroke="#1a1612" stroke-width="0.6" stroke-opacity="0.6"/>
  <line x1="133.08" y1="209.62" x2="266.92" y2="265.38" stroke="#1a1612" stroke-width="0.6" stroke-opacity="0.6"/>
  <line x1="314.46" y1="119.85" x2="455.54" y2="90.15" stroke="#1a1612" stroke-width="0.6" stroke-opacity="0.6"/>
  <line x1="314.46" y1="130.15" x2="455.54" y2="159.85" stroke="#1a1612" stroke-width="0.6" stroke-opacity="0.6"/>
  <line x1="314.46" y1="269.85" x2="455.54" y2="240.15" stroke="#1a1612" stroke-width="0.6" stroke-opacity="0.6"/>
  <line x1="314.46" y1="280.15" x2="455.54" y2="309.85" stroke="#1a1612" stroke-width="0.6" stroke-opacity="0.6"/>
  <circle cx="110" cy="200" r="3" fill="#1a1612" fill-opacity="0.6"/>
  <circle cx="290" cy="125" r="3" fill="#1a1612" fill-opacity="0.6"/>
  <circle cx="290" cy="275" r="3" fill="#1a1612" fill-opacity="0.6"/>
  <circle cx="480" cy="85" r="3" fill="#1a1612" fill-opacity="0.6"/>
  <circle cx="480" cy="165" r="3" fill="#1a1612" fill-opacity="0.6"/>
  <circle cx="480" cy="235" r="3" fill="#1a1612" fill-opacity="0.6"/>
  <circle cx="480" cy="315" r="3" fill="#1a1612" fill-opacity="0.6"/> -->


<line x1="100" y1="250" x2="156" y2="193" stroke="#1a1612" stroke-width="0.6" stroke-opacity="0.6"/>
  <line x1="100" y1="250" x2="198" y2="267" stroke="#1a1612" stroke-width="0.6" stroke-opacity="0.6"/>
  <line x1="100" y1="250" x2="130" y2="301" stroke="#1a1612" stroke-width="0.6" stroke-opacity="0.6"/>
  <line x1="156" y1="193" x2="180" y2="127" stroke="#1a1612" stroke-width="0.6" stroke-opacity="0.6"/>
  <line x1="156" y1="193" x2="244" y2="177" stroke="#1a1612" stroke-width="0.6" stroke-opacity="0.6"/>
  <line x1="198" y1="267" x2="245" y2="250" stroke="#1a1612" stroke-width="0.6" stroke-opacity="0.6"/>
  <line x1="198" y1="267" x2="267" y2="307" stroke="#1a1612" stroke-width="0.6" stroke-opacity="0.6"/>
  <line x1="198" y1="267" x2="208" y2="326" stroke="#1a1612" stroke-width="0.6" stroke-opacity="0.6"/>
  <line x1="130" y1="301" x2="193" y2="364" stroke="#1a1612" stroke-width="0.6" stroke-opacity="0.6"/>
  <line x1="244" y1="177" x2="290" y2="138" stroke="#1a1612" stroke-width="0.6" stroke-opacity="0.6"/>
  <line x1="244" y1="177" x2="311" y2="195" stroke="#1a1612" stroke-width="0.6" stroke-opacity="0.6"/>
  <line x1="245" y1="250" x2="344" y2="241" stroke="#1a1612" stroke-width="0.6" stroke-opacity="0.6"/>
  <line x1="267" y1="307" x2="340" y2="390" stroke="#1a1612" stroke-width="0.6" stroke-opacity="0.6"/>
  
  <line x1="208" y1="326" x2="225" y2="395" stroke="#1a1612" stroke-width="0.6" stroke-opacity="0.6"/>
  
  <line x1="193" y1="364" x2="268" y2="391" stroke="#1a1612" stroke-width="0.6" stroke-opacity="0.6"/>
  <line x1="193" y1="364" x2="210" y2="411" stroke="#1a1612" stroke-width="0.6" stroke-opacity="0.6"/>
  <line x1="311" y1="195" x2="358" y2="178" stroke="#1a1612" stroke-width="0.6" stroke-opacity="0.6"/>
  <line x1="344" y1="241" x2="386" y2="198" stroke="#1a1612" stroke-width="0.6" stroke-opacity="0.6"/>
  <line x1="344" y1="241" x2="422" y2="254" stroke="#1a1612" stroke-width="0.6" stroke-opacity="0.6"/>
  <line x1="344" y1="241" x2="389" y2="294" stroke="#1a1612" stroke-width="0.6" stroke-opacity="0.6"/>
  <line x1="422" y1="254" x2="510" y2="120" stroke="#1a1612" stroke-width="0.6" stroke-opacity="0.6"/>
  <line x1="422" y1="254" x2="490" y2="380" stroke="#1a1612" stroke-width="0.6" stroke-opacity="0.6"/>
  <line x1="510" y1="120" x2="560" y2="90" stroke="#1a1612" stroke-width="0.6" stroke-opacity="0.6"/>
  <line x1="340" y1="390" x2="430" y2="460" stroke="#1a1612" stroke-width="0.6" stroke-opacity="0.6"/>

  <!-- 랜덤한 위치에 생성된 노드(Node)들 -->
  <circle cx="100" cy="250" r="3" fill="#1a1612" fill-opacity="0.6"/>
  <circle cx="156" cy="193" r="3" fill="#1a1612" fill-opacity="0.6"/>
  <circle cx="198" cy="267" r="3" fill="#1a1612" fill-opacity="0.6"/>
  <circle cx="130" cy="301" r="3" fill="#1a1612" fill-opacity="0.6"/>
  <circle cx="180" cy="127" r="3" fill="#1a1612" fill-opacity="0.6"/>
  <circle cx="244" cy="177" r="3" fill="#1a1612" fill-opacity="0.6"/>
  <circle cx="245" cy="250" r="3" fill="#1a1612" fill-opacity="0.6"/>
  <circle cx="267" cy="307" r="3" fill="#1a1612" fill-opacity="0.6"/>
  <circle cx="208" cy="326" r="3" fill="#1a1612" fill-opacity="0.6"/>
  <circle cx="193" cy="364" r="3" fill="#1a1612" fill-opacity="0.6"/>
  <circle cx="290" cy="138" r="3" fill="#1a1612" fill-opacity="0.6"/>
  <circle cx="311" cy="195" r="3" fill="#1a1612" fill-opacity="0.6"/>
  <circle cx="344" cy="241" r="3" fill="#1a1612" fill-opacity="0.6"/>
  <circle cx="340" cy="390" r="3" fill="#1a1612" fill-opacity="0.6"/>
  
  <!-- 수정된 부분: 노드의 cx 좌표도 선의 끝점에 맞춰 195에서 225로 변경 -->
  <circle cx="225" cy="395" r="3" fill="#1a1612" fill-opacity="0.6"/>
  
  <circle cx="268" cy="391" r="3" fill="#1a1612" fill-opacity="0.6"/>
  <circle cx="210" cy="411" r="3" fill="#1a1612" fill-opacity="0.6"/>
  <circle cx="358" cy="178" r="3" fill="#1a1612" fill-opacity="0.6"/>
  <circle cx="386" cy="198" r="3" fill="#1a1612" fill-opacity="0.6"/>
  <circle cx="422" cy="254" r="3" fill="#1a1612" fill-opacity="0.6"/>
  <circle cx="389" cy="294" r="3" fill="#1a1612" fill-opacity="0.6"/>
  <circle cx="510" cy="120" r="3" fill="#1a1612" fill-opacity="0.6"/>
  <circle cx="490" cy="380" r="3" fill="#1a1612" fill-opacity="0.6"/>
  <circle cx="560" cy="90" r="3" fill="#1a1612" fill-opacity="0.6"/>
  <circle cx="430" cy="460" r="3" fill="#1a1612" fill-opacity="0.6"/>
</g>

    
    
</svg>
