<svg width="416" height="104" xmlns="http://www.w3.org/2000/svg">
  <rect x="10" y="10" width="10" height="10" rx="2" fill="#216e39"/>
  <rect x="22" y="10" width="10" height="10" rx="2" fill="#ebedf0"/>
  <rect x="34" y="10" width="10" height="10" rx="2" fill="#ebedf0"/>
  <rect x="46" y="10" width="10" height="10" rx="2" fill="#ebedf0"/>
  <rect x="58" y="10" width="10" height="10" rx="2" fill="#216e39"/>
  <rect x="10" y="22" width="10" height="10" rx="2" fill="#216e39"/>
  <rect x="22" y="22" width="10" height="10" rx="2" fill="#ebedf0"/>
  <rect x="34" y="22" width="10" height="10" rx="2" fill="#ebedf0"/>
  <rect x="46" y="22" width="10" height="10" rx="2" fill="#ebedf0"/>
  <rect x="58" y="22" width="10" height="10" rx="2" fill="#216e39"/>
  <rect x="10" y="34" width="10" height="10" rx="2" fill="#ebedf0"/>
  <rect x="22" y="34" width="10" height="10" rx="2" fill="#216e39"/>
  <rect x="34" y="34" width="10" height="10" rx="2" fill="#ebedf0"/>
  <rect x="46" y="34" width="10" height="10" rx="2" fill="#216e39"/>
  <rect x="58" y="34" width="10" height="10" rx="2" fill="#ebedf0"/>
  <rect x="10" y="46" width="10" height="10" rx="2" fill="#ebedf0"/>
  <rect x="22" y="46" width="10" height="10" rx="2" fill="#ebedf0"/>
  <rect x="34" y="46" width="10" height="10" rx="2" fill="#216e39"/>
  <rect x="46" y="46" width="10" height="10" rx="2" fill="#ebedf0"/>
  <rect x="58" y="46" width="10" height="10" rx="2" fill="#ebedf0"/>
  <rect x="10" y="58" width="10" height="10" rx="2" fill="#ebedf0"/>
  <rect x="22" y="58" width="10" height="10" rx="2" fill="#216e39"/>
  <rect x="34" y="58" width="10" height="10" rx="2" fill="#ebedf0"/>
  <rect x="46" y="58" width="10" height="10" rx="2" fill="#216e39"/>
  <rect x="58" y="58" width="10" height="10" rx="2" fill="#ebedf0"/>
  <rect x="10" y="70" width="10" height="10" rx="2" fill="#216e39"/>
  <rect x="22" y="70" width="10" height="10" rx="2" fill="#ebedf0"/>
  <rect x="34" y="70" width="10" height="10" rx="2" fill="#ebedf0"/>
  <rect x="46" y="70" width="10" height="10" rx="2" fill="#ebedf0"/>
  <rect x="58" y="70" width="10" height="10" rx="2" fill="#216e39"/>
  <rect x="10" y="82" width="10" height="10" rx="2" fill="#216e39"/>
  <rect x="22" y="82" width="10" height="10" rx="2" fill="#ebedf0"/>
  <rect x="34" y="82" width="10" height="10" rx="2" fill="#ebedf0"/>
  <rect x="46" y="82" width="10" height="10" rx="2" fill="#ebedf0"/>
  <rect x="58" y="82" width="10" height="10" rx="2" fill="#216e39"/>
  <rect x="82" y="10" width="10" height="10" rx="2" fill="#216e39"/>
  <rect x="94" y="10" width="10" height="10" rx="2" fill="#216e39"/>
  <rect x="106" y="10" width="10" height="10" rx="2" fill="#216e39"/>
  <rect x="82" y="22" width="10" height="10" rx="2" fill="#ebedf0"/>
  <rect x="94" y="22" width="10" height="10" rx="2" fill="#216e39"/>
  <rect x="106" y="22" width="10" height="10" rx="2" fill="#ebedf0"/>
  <rect x="82" y="34" width="10" height="10" rx="2" fill="#ebedf0"/>
  <rect x="94" y="34" width="10" height="10" rx="2" fill="#216e39"/>
  <rect x="106" y="34" width="10" height="10" rx="2" fill="#ebedf0"/>
  <rect x="82" y="46" width="10" height="10" rx="2" fill="#ebedf0"/>
  <rect x="94" y="46" width="10" height="10" rx="2" fill="#216e39"/>
  <rect x="106" y="46" width="10" height="10" rx="2" fill="#ebedf0"/>
  <rect x="82" y="58" width="10" height="10" rx="2" fill="#ebedf0"/>
  <rect x="94" y="58" width="10" height="10" rx="2" fill="#216e39"/>
  <rect x="106" y="58" width="10" height="10" rx="2" fill="#ebedf0"/>
  <rect x="82" y="70" width="10" height="10" rx="2" fill="#ebedf0"/>
  <rect x="94" y="70" width="10" height="10" rx="2" fill="#216e39"/>
  <rect x="106" y="70" width="10" height="10" rx="2" fill="#ebedf0"/>
  <rect x="82" y="82" width="10" height="10" rx="2" fill="#216e39"/>
  <rect x="94" y="82" width="10" height="10" rx="2" fill="#216e39"/>
  <rect x="106" y="82" width="10" height="10" rx="2" fill="#216e39"/>
  <rect x="130" y="10" width="10" height="10" rx="2" fill="#216e39"/>
  <rect x="142" y="10" width="10" height="10" rx="2" fill="#216e39"/>
  <rect x="154" y="10" width="10" height="10" rx="2" fill="#216e39"/>
  <rect x="166" y="10" width="10" height="10" rx="2" fill="#216e39"/>
  <rect x="178" y="10" width="10" height="10" rx="2" fill="#216e39"/>
  <rect x="130" y="22" width="10" height="10" rx="2" fill="#ebedf0"/>
  <rect x="142" y="22" width="10" height="10" rx="2" fill="#ebedf0"/>
  <rect x="154" y="22" width="10" height="10" rx="2" fill="#216e39"/>
  <rect x="166" y="22" width="10" height="10" rx="2" fill="#ebedf0"/>
  <rect x="178" y="22" width="10" height="10" rx="2" fill="#ebedf0"/>
  <rect x="130" y="34" width="10" height="10" rx="2" fill="#ebedf0"/>
  <rect x="142" y="34" width="10" height="10" rx="2" fill="#ebedf0"/>
  <rect x="154" y="34" width="10" height="10" rx="2" fill="#216e39"/>
  <rect x="166" y="34" width="10" height="10" rx="2" fill="#ebedf0"/>
  <rect x="178" y="34" width="10" height="10" rx="2" fill="#ebedf0"/>
  <rect x="130" y="46" width="10" height="10" rx="2" fill="#ebedf0"/>
  <rect x="142" y="46" width="10" height="10" rx="2" fill="#ebedf0"/>
  <rect x="154" y="46" width="10" height="10" rx="2" fill="#216e39"/>
  <rect x="166" y="46" width="10" height="10" rx="2" fill="#ebedf0"/>
  <rect x="178" y="46" width="10" height="10" rx="2" fill="#ebedf0"/>
  <rect x="130" y="58" width="10" height="10" rx="2" fill="#ebedf0"/>
  <rect x="142" y="58" width="10" height="10" rx="2" fill="#ebedf0"/>
  <rect x="154" y="58" width="10" height="10" rx="2" fill="#216e39"/>
  <rect x="166" y="58" width="10" height="10" rx="2" fill="#ebedf0"/>
  <rect x="178" y="58" width="10" height="10" rx="2" fill="#ebedf0"/>
  <rect x="130" y="70" width="10" height="10" rx="2" fill="#ebedf0"/>
  <rect x="142" y="70" width="10" height="10" rx="2" fill="#ebedf0"/>
  <rect x="154" y="70" width="10" height="10" rx="2" fill="#216e39"/>
  <rect x="166" y="70" width="10" height="10" rx="2" fill="#ebedf0"/>
  <rect x="178" y="70" width="10" height="10" rx="2" fill="#ebedf0"/>
  <rect x="130" y="82" width="10" height="10" rx="2" fill="#ebedf0"/>
  <rect x="142" y="82" width="10" height="10" rx="2" fill="#ebedf0"/>
  <rect x="154" y="82" width="10" height="10" rx="2" fill="#216e39"/>
  <rect x="166" y="82" width="10" height="10" rx="2" fill="#ebedf0"/>
  <rect x="178" y="82" width="10" height="10" rx="2" fill="#ebedf0"/>
  <rect x="202" y="10" width="10" height="10" rx="2" fill="#ebedf0"/>
  <rect x="214" y="10" width="10" height="10" rx="2" fill="#216e39"/>
  <rect x="226" y="10" width="10" height="10" rx="2" fill="#216e39"/>
  <rect x="238" y="10" width="10" height="10" rx="2" fill="#216e39"/>
  <rect x="250" y="10" width="10" height="10" rx="2" fill="#ebedf0"/>
  <rect x="202" y="22" width="10" height="10" rx="2" fill="#216e39"/>
  <rect x="214" y="22" width="10" height="10" rx="2" fill="#ebedf0"/>
  <rect x="226" y="22" width="10" height="10" rx="2" fill="#ebedf0"/>
  <rect x="238" y="22" width="10" height="10" rx="2" fill="#ebedf0"/>
  <rect x="250" y="22" width="10" height="10" rx="2" fill="#216e39"/>
  <rect x="202" y="34" width="10" height="10" rx="2" fill="#216e39"/>
  <rect x="214" y="34" width="10" height="10" rx="2" fill="#ebedf0"/>
  <rect x="226" y="34" width="10" height="10" rx="2" fill="#ebedf0"/>
  <rect x="238" y="34" width="10" height="10" rx="2" fill="#ebedf0"/>
  <rect x="250" y="34" width="10" height="10" rx="2" fill="#ebedf0"/>
  <rect x="202" y="46" width="10" height="10" rx="2" fill="#216e39"/>
  <rect x="214" y="46" width="10" height="10" rx="2" fill="#ebedf0"/>
  <rect x="226" y="46" width="10" height="10" rx="2" fill="#216e39"/>
  <rect x="238" y="46" width="10" height="10" rx="2" fill="#216e39"/>
  <rect x="250" y="46" width="10" height="10" rx="2" fill="#216e39"/>
  <rect x="202" y="58" width="10" height="10" rx="2" fill="#216e39"/>
  <rect x="214" y="58" width="10" height="10" rx="2" fill="#ebedf0"/>
  <rect x="226" y="58" width="10" height="10" rx="2" fill="#ebedf0"/>
  <rect x="238" y="58" width="10" height="10" rx="2" fill="#ebedf0"/>
  <rect x="250" y="58" width="10" height="10" rx="2" fill="#216e39"/>
  <rect x="202" y="70" width="10" height="10" rx="2" fill="#216e39"/>
  <rect x="214" y="70" width="10" height="10" rx="2" fill="#ebedf0"/>
  <rect x="226" y="70" width="10" height="10" rx="2" fill="#ebedf0"/>
  <rect x="238" y="70" width="10" height="10" rx="2" fill="#ebedf0"/>
  <rect x="250" y="70" width="10" height="10" rx="2" fill="#216e39"/>
  <rect x="202" y="82" width="10" height="10" rx="2" fill="#ebedf0"/>
  <rect x="214" y="82" width="10" height="10" rx="2" fill="#216e39"/>
  <rect x="226" y="82" width="10" height="10" rx="2" fill="#216e39"/>
  <rect x="238" y="82" width="10" height="10" rx="2" fill="#216e39"/>
  <rect x="250" y="82" width="10" height="10" rx="2" fill="#ebedf0"/>
  <rect x="274" y="10" width="10" height="10" rx="2" fill="#216e39"/>
  <rect x="286" y="10" width="10" height="10" rx="2" fill="#216e39"/>
  <rect x="298" y="10" width="10" height="10" rx="2" fill="#216e39"/>
  <rect x="310" y="10" width="10" height="10" rx="2" fill="#216e39"/>
  <rect x="322" y="10" width="10" height="10" rx="2" fill="#216e39"/>
  <rect x="274" y="22" width="10" height="10" rx="2" fill="#216e39"/>
  <rect x="286" y="22" width="10" height="10" rx="2" fill="#ebedf0"/>
  <rect x="298" y="22" width="10" height="10" rx="2" fill="#ebedf0"/>
  <rect x="310" y="22" width="10" height="10" rx="2" fill="#ebedf0"/>
  <rect x="322" y="22" width="10" height="10" rx="2" fill="#ebedf0"/>
  <rect x="274" y="34" width="10" height="10" rx="2" fill="#216e39"/>
  <rect x="286" y="34" width="10" height="10" rx="2" fill="#ebedf0"/>
  <rect x="298" y="34" width="10" height="10" rx="2" fill="#ebedf0"/>
  <rect x="310" y="34" width="10" height="10" rx="2" fill="#ebedf0"/>
  <rect x="322" y="34" width="10" height="10" rx="2" fill="#ebedf0"/>
  <rect x="274" y="46" width="10" height="10" rx="2" fill="#216e39"/>
  <rect x="286" y="46" width="10" height="10" rx="2" fill="#216e39"/>
  <rect x="298" y="46" width="10" height="10" rx="2" fill="#216e39"/>
  <rect x="310" y="46" width="10" height="10" rx="2" fill="#216e39"/>
  <rect x="322" y="46" width="10" height="10" rx="2" fill="#ebedf0"/>
  <rect x="274" y="58" width="10" height="10" rx="2" fill="#216e39"/>
  <rect x="286" y="58" width="10" height="10" rx="2" fill="#ebedf0"/>
  <rect x="298" y="58" width="10" height="10" rx="2" fill="#ebedf0"/>
  <rect x="310" y="58" width="10" height="10" rx="2" fill="#ebedf0"/>
  <rect x="322" y="58" width="10" height="10" rx="2" fill="#ebedf0"/>
  <rect x="274" y="70" width="10" height="10" rx="2" fill="#216e39"/>
  <rect x="286" y="70" width="10" height="10" rx="2" fill="#ebedf0"/>
  <rect x="298" y="70" width="10" height="10" rx="2" fill="#ebedf0"/>
  <rect x="310" y="70" width="10" height="10" rx="2" fill="#ebedf0"/>
  <rect x="322" y="70" width="10" height="10" rx="2" fill="#ebedf0"/>
  <rect x="274" y="82" width="10" height="10" rx="2" fill="#216e39"/>
  <rect x="286" y="82" width="10" height="10" rx="2" fill="#216e39"/>
  <rect x="298" y="82" width="10" height="10" rx="2" fill="#216e39"/>
  <rect x="310" y="82" width="10" height="10" rx="2" fill="#216e39"/>
  <rect x="322" y="82" width="10" height="10" rx="2" fill="#216e39"/>
  <rect x="346" y="10" width="10" height="10" rx="2" fill="#ebedf0"/>
  <rect x="358" y="10" width="10" height="10" rx="2" fill="#216e39"/>
  <rect x="370" y="10" width="10" height="10" rx="2" fill="#216e39"/>
  <rect x="382" y="10" width="10" height="10" rx="2" fill="#216e39"/>
  <rect x="394" y="10" width="10" height="10" rx="2" fill="#216e39"/>
  <rect x="346" y="22" width="10" height="10" rx="2" fill="#216e39"/>
  <rect x="358" y="22" width="10" height="10" rx="2" fill="#ebedf0"/>
  <rect x="370" y="22" width="10" height="10" rx="2" fill="#ebedf0"/>
  <rect x="382" y="22" width="10" height="10" rx="2" fill="#ebedf0"/>
  <rect x="394" y="22" width="10" height="10" rx="2" fill="#ebedf0"/>
  <rect x="346" y="34" width="10" height="10" rx="2" fill="#216e39"/>
  <rect x="358" y="34" width="10" height="10" rx="2" fill="#ebedf0"/>
  <rect x="370" y="34" width="10" height="10" rx="2" fill="#ebedf0"/>
  <rect x="382" y="34" width="10" height="10" rx="2" fill="#ebedf0"/>
  <rect x="394" y="34" width="10" height="10" rx="2" fill="#ebedf0"/>
  <rect x="346" y="46" width="10" height="10" rx="2" fill="#ebedf0"/>
  <rect x="358" y="46" width="10" height="10" rx="2" fill="#216e39"/>
  <rect x="370" y="46" width="10" height="10" rx="2" fill="#216e39"/>
  <rect x="382" y="46" width="10" height="10" rx="2" fill="#216e39"/>
  <rect x="394" y="46" width="10" height="10" rx="2" fill="#ebedf0"/>
  <rect x="346" y="58" width="10" height="10" rx="2" fill="#ebedf0"/>
  <rect x="358" y="58" width="10" height="10" rx="2" fill="#ebedf0"/>
  <rect x="370" y="58" width="10" height="10" rx="2" fill="#ebedf0"/>
  <rect x="382" y="58" width="10" height="10" rx="2" fill="#ebedf0"/>
  <rect x="394" y="58" width="10" height="10" rx="2" fill="#216e39"/>
  <rect x="346" y="70" width="10" height="10" rx="2" fill="#ebedf0"/>
  <rect x="358" y="70" width="10" height="10" rx="2" fill="#ebedf0"/>
  <rect x="370" y="70" width="10" height="10" rx="2" fill="#ebedf0"/>
  <rect x="382" y="70" width="10" height="10" rx="2" fill="#ebedf0"/>
  <rect x="394" y="70" width="10" height="10" rx="2" fill="#216e39"/>
  <rect x="346" y="82" width="10" height="10" rx="2" fill="#216e39"/>
  <rect x="358" y="82" width="10" height="10" rx="2" fill="#216e39"/>
  <rect x="370" y="82" width="10" height="10" rx="2" fill="#216e39"/>
  <rect x="382" y="82" width="10" height="10" rx="2" fill="#216e39"/>
  <rect x="394" y="82" width="10" height="10" rx="2" fill="#ebedf0"/>
</svg>